<svg xmlns="http://www.w3.org/2000/svg" id="editor" width="44" height="45" viewBox="0 0 44 45"><circle id="Ellipse_231" data-name="Ellipse 231" cx="8.525" cy="8.525" r="8.525" transform="translate(26.95 5.231)" fill="#00d7ff" opacity="0.093"></circle><circle id="Ellipse_232" data-name="Ellipse 232" cx="7" cy="7" r="7" transform="translate(9.817 31)" fill="#00d7ff" opacity="0.093"></circle><ellipse id="Ellipse_233" data-name="Ellipse 233" cx="12" cy="11.5" rx="12" ry="11.5" fill="#00d7ff" opacity="0.093"></ellipse><path id="Path_5348" data-name="Path 5348" d="M36.417,44.374H9.137A1.14,1.14,0,0,1,8,43.237V13.683L13.683,8H36.417a1.14,1.14,0,0,1,1.137,1.137v34.1A1.14,1.14,0,0,1,36.417,44.374Z" transform="translate(-3.224 -3.792)" fill="#fff"></path><path id="Path_5349" data-name="Path 5349" d="M39.007,57.324H15.137A1.14,1.14,0,0,1,14,56.187v-3.41A14.747,14.747,0,0,1,28.777,38h10.23a1.14,1.14,0,0,1,1.137,1.137v17.05A1.14,1.14,0,0,1,39.007,57.324Z" transform="translate(-6.063 -16.742)" fill="#00d7ff"></path><path id="Path_5350" data-name="Path 5350" d="M36.072,44.526H8.791A1.589,1.589,0,0,1,7.2,42.935V13.381a.434.434,0,0,1,.114-.284L13,7.414a.434.434,0,0,1,.284-.114H36.015a1.577,1.577,0,0,1,1.591,1.535v34.1A1.541,1.541,0,0,1,36.072,44.526ZM8.109,13.552V42.935a.752.752,0,0,0,.739.739h27.28a.752.752,0,0,0,.739-.739V8.835a.752.752,0,0,0-.739-.739H13.509Z" transform="translate(-2.878 -3.49)" fill="#21365f"></path><path id="Path_5351" data-name="Path 5351" d="M23,25h6.82V45.46H23Z" transform="translate(-9.896 -11.13)" fill="#fff"></path><path id="Path_5352" data-name="Path 5352" d="M31.547,48.05H27V32.137A1.14,1.14,0,0,1,28.137,31h3.41Z" transform="translate(-11.643 -13.72)" fill="#00d7ff"></path><path id="Path_5353" data-name="Path 5353" d="M29.475,45.57h-6.82a.448.448,0,0,1-.455-.455V24.655a.448.448,0,0,1,.455-.455h6.82a.448.448,0,0,1,.455.455v20.46C29.873,45.342,29.7,45.57,29.475,45.57Zm-6.365-.853h5.968V25.109H23.109Z" transform="translate(-9.549 -10.785)" fill="#21365f"></path><path id="Path_5354" data-name="Path 5354" d="M8,13.683,13.683,8v5.683Z" transform="translate(-3.224 -3.792)" fill="#fff"></path><path id="Path_5355" data-name="Path 5355" d="M12,15.41,15.41,12v3.41Z" transform="translate(-5.046 -5.519)" fill="#00d7ff"></path><path id="Path_5356" data-name="Path 5356" d="M13.355,13.819H7.672a.427.427,0,0,1-.4-.284.356.356,0,0,1,.114-.455L13.071,7.4a.442.442,0,0,1,.455-.114.427.427,0,0,1,.284.4v5.683A.489.489,0,0,1,13.355,13.819ZM8.7,12.966H12.9V8.7Z" transform="translate(-2.896 -3.473)" fill="#21365f"></path><path id="Path_5357" data-name="Path 5357" d="M50.115,22.41V19H45V46.28h5.115V42.87a10.23,10.23,0,0,0,0-20.46Zm0,17.05V25.82a6.82,6.82,0,0,1,0,13.64Z" transform="translate(-19.755 -8.54)" fill="#fff"></path><path id="Path_5358" data-name="Path 5358" d="M51.8,44.77a10.26,10.26,0,0,0,10.23-10.23,10.544,10.544,0,0,0-1.08-4.6,9.462,9.462,0,0,0-7.275-3.41v-2.1c-.625-.057-1.25-.114-1.876-.114V23.4H50.037A1.14,1.14,0,0,0,48.9,24.537V48.18h2.9Zm0-17.05a6.793,6.793,0,0,1,5.968,3.524,6.284,6.284,0,0,1,2.217,4.831,6.355,6.355,0,0,1-6.365,6.365V41.132a6.49,6.49,0,0,1-1.876.284v-13.7Z" transform="translate(-21.439 -10.44)" fill="#00d7ff"></path><g id="Group_6566" data-name="Group 6566" transform="translate(6.027 4.208)"><path id="Path_5359" data-name="Path 5359" d="M49.77,46.39H44.655a.448.448,0,0,1-.455-.455V18.655a.448.448,0,0,1,.455-.455H49.77a.448.448,0,0,1,.455.455v3.012a10.636,10.636,0,0,1,0,21.256v3.012A.489.489,0,0,1,49.77,46.39Zm-4.66-.853h4.263V42.525a.448.448,0,0,1,.455-.455,9.8,9.8,0,1,0,0-19.608.448.448,0,0,1-.455-.455V19H45.109Zm4.66-5.968a.448.448,0,0,1-.455-.455V25.475a.448.448,0,0,1,.455-.455,7.275,7.275,0,1,1,0,14.55Zm.455-13.64V38.66a6.379,6.379,0,0,0,0-12.731Z" transform="translate(-25.437 -12.403)" fill="#21365f"></path><path id="Path_5360" data-name="Path 5360" d="M46.928,61.109H44.655a.455.455,0,1,1,0-.909h2.273a.448.448,0,0,1,.455.455A.489.489,0,0,1,46.928,61.109Z" transform="translate(-25.211 -30.533)" fill="#21365f"></path><path id="Path_5361" data-name="Path 5361" d="M46.928,55.109H44.655a.448.448,0,0,1-.455-.455.418.418,0,0,1,.455-.455h2.273a.455.455,0,1,1,0,.909Z" transform="translate(-25.211 -27.943)" fill="#21365f"></path><path id="Path_5362" data-name="Path 5362" d="M46.928,49.109H44.655a.448.448,0,0,1-.455-.455.418.418,0,0,1,.455-.455h2.273a.455.455,0,1,1,0,.909Z" transform="translate(-25.211 -25.353)" fill="#21365f"></path><path id="Path_5363" data-name="Path 5363" d="M46.928,43.109H44.655a.455.455,0,1,1,0-.909h2.273a.448.448,0,0,1,.455.455A.489.489,0,0,1,46.928,43.109Z" transform="translate(-25.211 -22.763)" fill="#21365f"></path><path id="Path_5364" data-name="Path 5364" d="M46.928,37.109H44.655a.455.455,0,1,1,0-.909h2.273a.448.448,0,0,1,.455.455A.489.489,0,0,1,46.928,37.109Z" transform="translate(-25.211 -20.173)" fill="#21365f"></path><path id="Path_5365" data-name="Path 5365" d="M46.928,31.109H44.655a.455.455,0,1,1,0-.909h2.273a.448.448,0,0,1,.455.455A.489.489,0,0,1,46.928,31.109Z" transform="translate(-25.211 -17.583)" fill="#21365f"></path><path id="Path_5366" data-name="Path 5366" d="M46.928,25.109H44.655a.455.455,0,1,1,0-.909h2.273a.448.448,0,0,1,.455.455A.489.489,0,0,1,46.928,25.109Z" transform="translate(-25.211 -14.993)" fill="#21365f"></path><path id="Path_5367" data-name="Path 5367" d="M39.928,61.109H37.655a.455.455,0,0,1,0-.909h2.273a.448.448,0,0,1,.455.455A.489.489,0,0,1,39.928,61.109Z" transform="translate(-22.12 -30.533)" fill="#21365f"></path><path id="Path_5368" data-name="Path 5368" d="M34.655,66.383a.448.448,0,0,1-.455-.455V63.655a.455.455,0,1,1,.909,0v2.273A.489.489,0,0,1,34.655,66.383Z" transform="translate(-20.78 -31.828)" fill="#21365f"></path><path id="Path_5369" data-name="Path 5369" d="M39.928,25.109H37.655a.455.455,0,0,1,0-.909h2.273a.448.448,0,0,1,.455.455A.489.489,0,0,1,39.928,25.109Z" transform="translate(-22.12 -14.993)" fill="#21365f"></path><path id="Path_5370" data-name="Path 5370" d="M17.928,61.109H15.655a.455.455,0,1,1,0-.909h2.273a.448.448,0,0,1,.455.455C18.326,60.882,18.155,61.109,17.928,61.109Z" transform="translate(-12.358 -30.533)" fill="#21365f"></path><path id="Path_5371" data-name="Path 5371" d="M17.928,25.109H15.655a.455.455,0,1,1,0-.909h2.273a.448.448,0,0,1,.455.455C18.326,24.882,18.155,25.109,17.928,25.109Z" transform="translate(-12.358 -14.993)" fill="#21365f"></path><path id="Path_5372" data-name="Path 5372" d="M34.655,20.283a.448.448,0,0,1-.455-.455V17.555a.455.455,0,1,1,.909,0v2.273A.448.448,0,0,1,34.655,20.283Z" transform="translate(-20.78 -11.928)" fill="#21365f"></path><path id="Path_5373" data-name="Path 5373" d="M22.655,66.383a.448.448,0,0,1-.455-.455V63.655a.455.455,0,1,1,.909,0v2.273C23.053,66.155,22.882,66.383,22.655,66.383Z" transform="translate(-15.49 -31.828)" fill="#21365f"></path><path id="Path_5374" data-name="Path 5374" d="M22.655,20.283a.448.448,0,0,1-.455-.455V17.555a.455.455,0,0,1,.909,0v2.273C23.053,20.112,22.882,20.283,22.655,20.283Z" transform="translate(-15.49 -11.928)" fill="#21365f"></path><path id="Path_5375" data-name="Path 5375" d="M12.928,32.109H10.655a.455.455,0,1,1,0-.909h2.273a.448.448,0,0,1,.455.455A.489.489,0,0,1,12.928,32.109Z" transform="translate(-10.2 -18.014)" fill="#21365f"></path><path id="Path_5376" data-name="Path 5376" d="M12.655,32.383a.448.448,0,0,1-.455-.455V29.655a.455.455,0,1,1,.909,0v2.273A.489.489,0,0,1,12.655,32.383Z" transform="translate(-11.063 -17.151)" fill="#21365f"></path><path id="Path_5377" data-name="Path 5377" d="M64.928,64.109H62.655a.455.455,0,1,1,0-.909h2.273a.448.448,0,0,1,.455.455A.489.489,0,0,1,64.928,64.109Z" transform="translate(-33.207 -31.828)" fill="#21365f"></path><path id="Path_5378" data-name="Path 5378" d="M64.655,64.383a.448.448,0,0,1-.455-.455V61.655a.455.455,0,1,1,.909,0v2.273A.489.489,0,0,1,64.655,64.383Z" transform="translate(-34.07 -30.964)" fill="#21365f"></path><path id="Path_5379" data-name="Path 5379" d="M68.928,22.809H66.655a.455.455,0,1,1,0-.909h2.273a.455.455,0,1,1,0,.909Z" transform="translate(-34.933 -14)" fill="#21365f"></path><path id="Path_5380" data-name="Path 5380" d="M68.655,23.083a.448.448,0,0,1-.455-.455V20.355a.455.455,0,0,1,.909,0v2.273A.448.448,0,0,1,68.655,23.083Z" transform="translate(-35.797 -13.137)" fill="#21365f"></path><circle id="Ellipse_234" data-name="Ellipse 234" cx="0.455" cy="0.455" r="0.455" transform="translate(32.403 4.547)" fill="#21365f"></circle><circle id="Ellipse_235" data-name="Ellipse 235" cx="0.455" cy="0.455" r="0.455" transform="translate(32.403 2.842)" fill="#21365f"></circle><circle id="Ellipse_236" data-name="Ellipse 236" cx="0.455" cy="0.455" r="0.455" transform="translate(32.403)" fill="#21365f"></circle></g><circle id="Ellipse_237" data-name="Ellipse 237" cx="1" cy="1" r="1" transform="translate(8.881 22)" fill="#fff"></circle><path id="Path_5381" data-name="Path 5381" d="M15.835,42.383A1.542,1.542,0,0,1,14.3,40.791a1.563,1.563,0,1,1,3.126,0A1.667,1.667,0,0,1,15.835,42.383Zm0-2.273a.7.7,0,0,0-.682.739.744.744,0,0,0,.682.739.739.739,0,0,0,0-1.478Z" transform="translate(-6.056 -17.26)" fill="#21365f"></path><path id="Path_5382" data-name="Path 5382" d="M30.655,51.879a.448.448,0,0,1-.455-.455v-5.57a.455.455,0,0,1,.909,0v5.57C31.053,51.652,30.882,51.879,30.655,51.879Z" transform="translate(-13.03 -19.936)" fill="#21365f"></path><path id="Path_5383" data-name="Path 5383" d="M30.655,41.36a.448.448,0,0,1-.455-.455v-1.25a.455.455,0,1,1,.909,0v1.25C31.053,41.132,30.882,41.36,30.655,41.36Z" transform="translate(-13.03 -17.26)" fill="#21365f"></path></svg>