<svg xmlns="http://www.w3.org/2000/svg" id="eye" width="40" height="45" viewBox="0 0 40 45"><ellipse id="Ellipse_238" data-name="Ellipse 238" cx="11" cy="11.5" rx="11" ry="11.5" transform="translate(0 16)" fill="#00bfff" opacity="0.088"></ellipse><ellipse id="Ellipse_239" data-name="Ellipse 239" cx="8.5" cy="9" rx="8.5" ry="9" transform="translate(11.772)" fill="#00bfff" opacity="0.088"></ellipse><ellipse id="Ellipse_240" data-name="Ellipse 240" cx="5.5" cy="6" rx="5.5" ry="6" transform="translate(24.554 33)" fill="#00bfff" opacity="0.088"></ellipse><path id="Path_5384" data-name="Path 5384" d="M43.8,14H11.748A1.717,1.717,0,0,0,10,15.748V44.884a1.717,1.717,0,0,0,1.748,1.748H39.136A4.675,4.675,0,0,0,43.8,41.97Z" transform="translate(-4.264 -5.776)" fill="#fff"></path><path id="Path_5385" data-name="Path 5385" d="M46.719,30h-6.41A23.3,23.3,0,0,0,17,53.309H42.057a4.675,4.675,0,0,0,4.662-4.662Z" transform="translate(-7.185 -12.453)" fill="#00d7ff"></path><path id="Path_5386" data-name="Path 5386" d="M38.422,46.764H11.386A2.2,2.2,0,0,1,9.2,44.55V15.414A2.2,2.2,0,0,1,11.386,13.2H43.024a.457.457,0,0,1,.46.466v27.97A5.141,5.141,0,0,1,38.422,46.764ZM11.386,14.132a1.347,1.347,0,0,0-1.323,1.34V44.608a1.347,1.347,0,0,0,1.323,1.34H38.422a4.251,4.251,0,0,0,4.2-4.254V14.132Z" transform="translate(-3.484 -5.443)" fill="#21365f"></path><path id="Path_5387" data-name="Path 5387" d="M64.662,38.632A4.675,4.675,0,0,0,60,33.97V6a4.675,4.675,0,0,1,4.662,4.662Z" transform="translate(-25.128 -2.438)" fill="#fff"></path><path id="Path_5388" data-name="Path 5388" d="M68,61.917v0Z" transform="translate(-28.466 -25.723)" fill="#fff"></path><path id="Path_5389" data-name="Path 5389" d="M65.914,13.049A4.685,4.685,0,0,0,63,12V36.824a4.649,4.649,0,0,1,2.914,4.2V13.049Z" transform="translate(-26.38 -4.942)" fill="#00d7ff"></path><g id="Group_6567" data-name="Group 6567" transform="translate(8.184 3.096)"><path id="Path_5390" data-name="Path 5390" d="M64.286,38.764a.46.46,0,0,1-.466-.466,4.278,4.278,0,0,0-4.254-4.254.46.46,0,0,1-.466-.466V5.666a.46.46,0,0,1,.466-.466,5.135,5.135,0,0,1,5.128,5.128V38.3A.413.413,0,0,1,64.286,38.764Zm-4.2-5.536a5.045,5.045,0,0,1,3.788,2.214V10.328a4.276,4.276,0,0,0-3.788-4.2Z" transform="translate(-32.936 -5.2)" fill="#21365f"></path><path id="Path_5391" data-name="Path 5391" d="M31.908,8.463A.416.416,0,0,1,31.5,8V5.666a.45.45,0,0,1,.408-.466c.291.058.466.233.466.466V8A.46.46,0,0,1,31.908,8.463Z" transform="translate(-21.419 -5.2)" fill="#21365f"></path><path id="Path_5392" data-name="Path 5392" d="M32.2,8.174H29.866a.46.46,0,0,1-.466-.466.416.416,0,0,1,.466-.408H32.2a.416.416,0,0,1,.466.408A.46.46,0,0,1,32.2,8.174Z" transform="translate(-20.543 -6.076)" fill="#21365f"></path><circle id="Ellipse_241" data-name="Ellipse 241" cx="0.466" cy="0.466" r="0.466" transform="translate(13.519 1.165)" fill="#21365f"></circle><circle id="Ellipse_242" data-name="Ellipse 242" cx="0.466" cy="0.466" r="0.466" transform="translate(15.267 1.165)" fill="#21365f"></circle><circle id="Ellipse_243" data-name="Ellipse 243" cx="0.466" cy="0.466" r="0.466" transform="translate(17.598 1.165)" fill="#21365f"></circle><circle id="Ellipse_244" data-name="Ellipse 244" cx="0.466" cy="0.466" r="0.466" transform="translate(21.153 1.165)" fill="#21365f"></circle><path id="Path_5393" data-name="Path 5393" d="M41.666,64.463A.46.46,0,0,1,41.2,64V61.666a.466.466,0,0,1,.932,0V64C42.074,64.23,41.9,64.463,41.666,64.463Z" transform="translate(-25.467 -28.568)" fill="#21365f"></path><path id="Path_5394" data-name="Path 5394" d="M42,64.174H39.666a.46.46,0,0,1-.466-.466.416.416,0,0,1,.466-.408H42a.45.45,0,0,1,.466.408C42.4,63.941,42.23,64.174,42,64.174Z" transform="translate(-24.632 -29.444)" fill="#21365f"></path><circle id="Ellipse_245" data-name="Ellipse 245" cx="0.466" cy="0.466" r="0.466" transform="translate(12.237 33.798)" fill="#21365f"></circle><circle id="Ellipse_246" data-name="Ellipse 246" cx="0.466" cy="0.466" r="0.466" transform="translate(10.489 33.798)" fill="#21365f"></circle><circle id="Ellipse_247" data-name="Ellipse 247" cx="0.466" cy="0.466" r="0.466" transform="translate(8.158 33.798)" fill="#21365f"></circle><circle id="Ellipse_248" data-name="Ellipse 248" cx="0.466" cy="0.466" r="0.466" transform="translate(4.662 33.798)" fill="#21365f"></circle><path id="Path_5395" data-name="Path 5395" d="M19.794,20.132H14.666a.46.46,0,0,1-.466-.466.429.429,0,0,1,.466-.466h5.128a.466.466,0,1,1,0,.932Z" transform="translate(-14.2 -11.042)" fill="#21365f"></path><path id="Path_5396" data-name="Path 5396" d="M28.748,20.132H27.466A.46.46,0,0,1,27,19.666a.429.429,0,0,1,.466-.466h1.282a.466.466,0,0,1,0,.932Z" transform="translate(-19.541 -11.042)" fill="#21365f"></path></g><path id="Path_5397" data-name="Path 5397" d="M34.3,34.906s-6.76,9.906-15.151,9.906S4,34.906,4,34.906,10.76,25,19.151,25,34.3,34.906,34.3,34.906Z" transform="translate(-1.314 -10.367)" fill="#fff"></path><path id="Path_5398" data-name="Path 5398" d="M39.559,37.41A33.754,33.754,0,0,0,35.6,32.923,11.653,11.653,0,0,0,29.536,31C22.427,31,16.6,39.449,16.6,39.449s3.9,5.711,9.323,7.75C33.615,46.151,39.559,37.41,39.559,37.41Z" transform="translate(-6.828 -12.87)" fill="#00d7ff"></path><path id="Path_5399" data-name="Path 5399" d="M18.838,45.028c-8.508,0-15.209-9.673-15.5-10.081a.352.352,0,0,1,0-.466c.291-.408,6.993-10.081,15.5-10.081s15.209,9.673,15.5,10.081a.352.352,0,0,1,0,.466c-.291.35-6.993,10.081-15.5,10.081ZM4.211,34.656c1.107,1.515,7.342,9.5,14.626,9.5,7.342,0,13.519-7.925,14.626-9.5-1.107-1.515-7.342-9.44-14.626-9.44-7.342,0-13.519,7.925-14.626,9.44Z" transform="translate(-1.001 -10.116)" fill="#21365f"></path><circle id="Ellipse_249" data-name="Ellipse 249" cx="7.867" cy="7.867" r="7.867" transform="translate(9.79 16.673)" fill="#fff"></circle><path id="Path_5400" data-name="Path 5400" d="M35.154,36.826a7.922,7.922,0,0,0-4.72-7.226A7.875,7.875,0,0,0,28.22,44.634,7.875,7.875,0,0,0,35.154,36.826Z" transform="translate(-9.669 -12.286)" fill="#00d7ff"></path><path id="Path_5401" data-name="Path 5401" d="M24.075,44.407a8.3,8.3,0,1,1,8.333-8.275A8.282,8.282,0,0,1,24.075,44.407Zm0-15.733a7.43,7.43,0,1,0,7.459,7.4A7.424,7.424,0,0,0,24.075,28.674Z" transform="translate(-6.417 -11.535)" fill="#21365f"></path><circle id="Ellipse_250" data-name="Ellipse 250" cx="3.788" cy="3.788" r="3.788" transform="translate(13.858 20.752)" fill="#fff"></circle><path id="Path_5402" data-name="Path 5402" d="M32.327,40.54a3.09,3.09,0,0,0-.408-1.632,3.09,3.09,0,0,0-1.632-.408A3.78,3.78,0,0,0,26.5,42.288a3.09,3.09,0,0,0,.408,1.632,3.969,3.969,0,0,0,1.632.408A3.78,3.78,0,0,0,32.327,40.54Z" transform="translate(-10.906 -16)" fill="#00d7ff"></path><path id="Path_5403" data-name="Path 5403" d="M27,43.208A4.254,4.254,0,0,1,27,34.7a4.254,4.254,0,0,1,0,8.508Zm0-7.575a3.333,3.333,0,0,0-3.321,3.38A3.37,3.37,0,0,0,27,42.392a3.42,3.42,0,0,0,3.38-3.38A3.345,3.345,0,0,0,27,35.632Z" transform="translate(-9.349 -14.414)" fill="#21365f"></path><circle id="Ellipse_251" data-name="Ellipse 251" cx="1.748" cy="1.748" r="1.748" transform="translate(18.542 20.111)" fill="#fff"></circle><path id="Path_5404" data-name="Path 5404" d="M33.014,37.929a2.214,2.214,0,1,1,2.214-2.214A2.213,2.213,0,0,1,33.014,37.929Zm0-3.5a1.355,1.355,0,0,0-1.34,1.34,1.319,1.319,0,0,0,1.34,1.34,1.355,1.355,0,0,0,1.34-1.34A1.319,1.319,0,0,0,33.014,34.432Z" transform="translate(-12.724 -13.913)" fill="#21365f"></path><circle id="Ellipse_252" data-name="Ellipse 252" cx="1.165" cy="1.165" r="1.165" transform="translate(25.46 12.536)" fill="#fff"></circle><path id="Path_5405" data-name="Path 5405" d="M44.432,23.763a1.632,1.632,0,1,1,1.632-1.632A1.593,1.593,0,0,1,44.432,23.763Zm0-2.331a.758.758,0,1,0,.758.758A.771.771,0,0,0,44.432,21.432Z" transform="translate(-17.808 -8.489)" fill="#21365f"></path><circle id="Ellipse_253" data-name="Ellipse 253" cx="1.165" cy="1.165" r="1.165" transform="translate(31.219 33.513)" fill="#fff"></circle><path id="Path_5406" data-name="Path 5406" d="M54.432,59.763a1.632,1.632,0,1,1,0-3.263,1.632,1.632,0,1,1,0,3.263Zm0-2.331a.758.758,0,1,0,.758.758A.771.771,0,0,0,54.432,57.432Z" transform="translate(-22.123 -23.511)" fill="#21365f"></path></svg>